# File created by Blade
# Date/Time:  Mon Nov 18 17:26:10 2013
# Frame Rate: 100.000 fps
#------------------------------------------------------
:FULLY-SPECIFIED
:DEGREES
272
root -40.054704 -2.875105 38.473964 9.988580 -0.982996 14.023761
Spine 22.237497 -1.399689 0.912358
Spine1 8.029254 -0.374776 2.372206
Spine2 -22.463222 -1.961010 -1.170094
NeckDummy -0.110557 0.287305 0.945080 13.587643 -0.011157 -0.992783
Neck 1.742849 -15.372356 40.467813
Head -0.480085 -0.079584 0.263445 -4.771139 -5.516460 -2.378151
LeftShoulderDummy -0.164273 0.287757 0.957558 13.582249 -0.204349 -0.755566
LeftShoulder 6.065432 -8.217991 15.795930
LeftArm 15.512900 39.707945 19.579458
LeftForeArm 44.060437
LeftForeArmRoll 23.201507
LeftHand -33.619984 -24.317019 13.860314
LeftHandThumb1 13.826147 5.051831
LeftHandIndex1 0.171095 40.204106
LeftHandPinky1 1.494080 59.622895
RightShoulderDummy -0.102542 0.322339 0.926604 13.552506 0.001308 1.054661
RightShoulder 5.623728 5.018898 6.349145
RightArm 0.650865 62.033475 38.951764
RightForeArm 100.928372
RightForeArmRoll 21.412869
RightHand -46.538061 -27.130995 7.385554
RightHandThumb1 12.212695 4.823836
RightHandIndex1 4.324391 34.732391
RightHandPinky1 9.814414 61.961784
LeftUpLeg -11.516611 22.569079 -40.904272
LeftLeg 38.840462
LeftFoot -0.014794 -0.666946 -1.145367 -26.726715 24.095249 2.346781
LeftToeBase 0.654823
RightUpLeg 1.516446 17.936614 -37.837793
RightLeg 54.372293
RightFoot -0.540012 0.809642 0.912070 -22.083290 5.986211 -20.556508
RightToeBase -1.222190
273
root -40.082991 -2.875494 38.457719 9.947952 -0.930142 13.932169
Spine 22.246057 -1.340077 0.869176
Spine1 8.030126 -0.345256 2.302195
Spine2 -22.478585 -1.964335 -1.163087
NeckDummy -0.110559 0.287976 0.945683 13.603238 -0.019232 -0.951573
Neck 1.729013 -15.418436 40.412210
Head -0.479063 -0.078563 0.267140 -4.807039 -5.533853 -2.331616
LeftShoulderDummy -0.164070 0.289346 0.958131 13.597308 -0.211431 -0.715294
LeftShoulder 6.121371 -8.267579 15.776970
LeftArm 15.306616 39.823118 19.577793
LeftForeArm 43.723729
LeftForeArmRoll 23.279217
LeftHand -33.672161 -24.303390 14.024551
LeftHandThumb1 13.765189 5.053179
LeftHandIndex1 0.081974 40.271555
LeftHandPinky1 1.742670 59.849099
RightShoulderDummy -0.102690 0.322294 0.926895 13.567638 0.009927 1.012337
RightShoulder 5.586485 5.085538 6.364075
RightArm 0.395648 61.864312 38.700032
RightForeArm 100.905076
RightForeArmRoll 21.906194
RightHand -46.497580 -26.963500 7.356157
RightHandThumb1 12.195933 4.955700
RightHandIndex1 4.356332 34.975379
RightHandPinky1 9.869004 62.153738
LeftUpLeg -11.500211 22.558021 -40.747101
LeftLeg 38.691808
LeftFoot -0.009256 -0.663559 -1.141254 -26.792519 24.217983 2.408080
LeftToeBase 0.644178
RightUpLeg 1.433469 17.917206 -37.880659
RightLeg 54.384078
RightFoot -0.547618 0.814765 0.906650 -22.086463 5.920148 -20.662545
RightToeBase -1.154089
274
root -40.103624 -2.874932 38.441963 9.913604 -0.869390 13.825739
Spine 22.240747 -1.302357 0.840002
Spine1 8.028880 -0.330081 2.242273
Spine2 -22.493755 -1.943915 -1.155856
NeckDummy -0.109610 0.287262 0.946333 13.611333 -0.023931 -0.962844
Neck 1.687024 -15.402181 40.419797
Head -0.482629 -0.078087 0.264736 -4.793663 -5.543489 -2.387529
LeftShoulderDummy -0.163483 0.288501 0.959072 13.605874 -0.218700 -0.719120
LeftShoulder 6.179385 -8.220934 15.752270
LeftArm 15.108389 40.015799 19.559009
LeftForeArm 43.445130
LeftForeArmRoll 23.469751
LeftHand -33.695535 -24.425680 14.152925
LeftHandThumb1 13.849286 5.087107
LeftHandIndex1 0.135348 40.311126
LeftHandPinky1 1.555956 59.711120
RightShoulderDummy -0.101891 0.321719 0.927516 13.576191 0.014945 1.024487
RightShoulder 5.580416 5.091788 6.373488
RightArm 0.075927 61.676287 38.381138
RightForeArm 100.826281
RightForeArmRoll 22.083579
RightHand -46.367984 -26.590342 7.445163
RightHandThumb1 11.879018 4.931741
RightHandIndex1 4.507016 34.807588
RightHandPinky1 10.055373 62.192340
LeftUpLeg -11.499952 22.533528 -40.616803
LeftLeg 38.602804
LeftFoot -0.010633 -0.664887 -1.139949 -26.891451 24.340099 2.430234
LeftToeBase 0.644895
RightUpLeg 1.368075 17.928232 -37.932771
RightLeg 54.388429
RightFoot -0.548357 0.811482 0.905977 -22.047500 5.842963 -20.674045
RightToeBase -1.149214
275
root -40.123013 -2.875911 38.424430 9.892261 -0.834162 13.728063
Spine 22.212322 -1.246753 0.793632
Spine1 8.022245 -0.306430 2.185474
Spine2 -22.479909 -1.957868 -1.173201
NeckDummy -0.110633 0.289569 0.946570 13.605527 -0.018422 -1.004144
Neck 1.607232 -15.333909 40.429886
Head -0.485107 -0.079173 0.264582 -4.755934 -5.605041 -2.368794
LeftShoulderDummy -0.165093 0.290582 0.959230 13.600974 -0.216714 -0.739568
LeftShoulder 6.256737 -8.154815 15.740228
LeftArm 14.959469 40.162633 19.541572
LeftForeArm 43.178485
LeftForeArmRoll 23.514569
LeftHand -33.833183 -24.399559 14.371815
LeftHandThumb1 13.623271 5.091775
LeftHandIndex1 0.086438 40.036218
LeftHandPinky1 1.638823 59.642357
RightShoulderDummy -0.103146 0.324753 0.927864 13.571177 0.010478 1.062757
RightShoulder 5.594790 5.010726 6.351432
RightArm -0.218108 61.475353 38.094240
RightForeArm 100.773978
RightForeArmRoll 22.374666
RightHand -46.313988 -26.357798 7.590434
RightHandThumb1 11.706252 5.090786
RightHandIndex1 4.746690 34.935039
RightHandPinky1 10.194394 62.417129
LeftUpLeg -11.476313 22.540563 -40.506656
LeftLeg 38.498267
LeftFoot -0.010831 -0.660343 -1.136502 -26.882980 24.449820 2.459584
LeftToeBase 0.654789
RightUpLeg 1.309870 17.915401 -37.996959
RightLeg 54.401586
RightFoot -0.550739 0.808175 0.904834 -22.015234 5.773284 -20.675210
RightToeBase -1.130126
